<?xml version="1.0" encoding="UTF-8" standalone="no"?>
<svg
   version="1.1"
   id="svg1"
   width="119.43333"
   height="54.425335"
   viewBox="0 0 119.43333 54.425337"
   xmlns="http://www.w3.org/2000/svg"
   xmlns:svg="http://www.w3.org/2000/svg">
  <defs
     id="defs1" />
  <g
     id="layer-MC0"
     transform="translate(-397.60608,-22.67728)">
    <g
       id="ornament_tm">
      <path
         id="path3"
         d="m 0,0 -3.402,-4.535 h -15.874 l -2.703,3.401 h -19.275 l -3.036,-3.35 -35.08,-0.051 v 6.803 h 68.031 l 3.403,3.401 -0.001,6.803 h 2.268 L -2.268,9.071 V 6.803 H 0 Z"
         style="fill:#ffffff;fill-opacity:1;fill-rule:nonzero;stroke:none"
         transform="matrix(1.3333333,0,0,-1.3333333,517.03941,71.055547)" />
      <path
         id="path4"
         d="m 0,0 h -9.071 v -4.535 l 2.268,-2.268 H 0 Z"
         style="fill:#ffffff;fill-opacity:1;fill-rule:nonzero;stroke:none"
         transform="matrix(1.3333333,0,0,-1.3333333,409.70075,68.031947)" />
      <path
         id="path7"
         d="m 0,0 -6.804,6.803 h 2.267 L 2.266,0 Z"
         style="fill:#ffffff;fill-opacity:1;fill-rule:nonzero;stroke:none"
         transform="matrix(1.3333333,0,0,-1.3333333,506.45835,33.260347)" />
      <path
         id="path10"
         d="M 0,0 H 10.205 L 9.071,3.402 H -3.402 Z"
         style="fill:#ffffff;fill-opacity:1;fill-rule:nonzero;stroke:none"
         transform="matrix(1.3333333,0,0,-1.3333333,488.31488,28.72488)" />
      <path
         id="path11"
         d="m 0,0 h -24.945 l 1.134,1.134 h 9.071 l 1.134,1.134 h 2.267 l 1.134,-1.134 H 2.268 6.803 V 0 H 1.134 Z"
         style="fill:#ffffff;fill-opacity:1;fill-rule:nonzero;stroke:none"
         transform="matrix(1.3333333,0,0,-1.3333333,465.63781,25.70128)" />
    </g>
  </g>
</svg>
