<?xml version="1.0" encoding="UTF-8" standalone="no"?>
<svg
   version="1.1"
   id="svg1"
   width="13.229333"
   height="104.882"
   viewBox="0 0 13.229333 104.88201"
   xmlns="http://www.w3.org/2000/svg"
   xmlns:svg="http://www.w3.org/2000/svg">
  <defs
     id="defs1" />
  <g
     id="layer-MC0"
     transform="translate(-760.44048,-101.29181)">
    <g
       id="ornament_rt">
      <path
         id="path24"
         d="m 0,0 2.835,-2.835 v -11.338 l -2.126,-1.69 V -27.91 l 2.093,-1.897 0.033,-39.642 h -4.252 v 60.236 l -3.544,3.544 h -2.126 v 3.543 h 2.835 V 0 Z"
         style="fill:#ffffff;fill-opacity:1;fill-rule:nonzero;stroke:none"
         transform="matrix(1.3333333,0,0,-1.3333333,769.88981,101.29181)" />
      <path
         id="path25"
         d="m 0,0 v -8.504 l -2.835,2.835 -1.417,1.417 V 0 Z"
         style="fill:#ffffff;fill-opacity:1;fill-rule:nonzero;stroke:none"
         transform="matrix(1.3333333,0,0,-1.3333333,773.66928,194.83515)" />
      <path
         id="path26"
         d="m 582.378,714.189 h -3.543 v 3.543 h 3.543 z"
         style="fill:#ffffff;fill-opacity:1;fill-rule:nonzero;stroke:none"
         transform="matrix(1.3333333,0,0,-1.3333333,-11.338587,1069.6067)" />
      <path
         id="path27"
         d="m 582.378,709.228 h -3.543 v 3.543 h 3.543 z"
         style="fill:#ffffff;fill-opacity:1;fill-rule:nonzero;stroke:none"
         transform="matrix(1.3333333,0,0,-1.3333333,-11.338587,1069.6067)" />
      <path
         id="path28"
         d="m 580.961,697.89 h -0.709 v 8.504 h 0.709 z m 0,-9.921 h -0.709 v 8.504 h 0.709 z m 0,-9.922 h -0.709 v 8.504 h 0.709 z m -2.126,29.764 V 655.37 l 3.543,3.543 v 48.898 z"
         style="fill:#ffffff;fill-opacity:1;fill-rule:nonzero;stroke:none"
         transform="matrix(1.3333333,0,0,-1.3333333,-11.338587,1069.6067)" />
    </g>
  </g>
</svg>
