<?xml version="1.0" encoding="UTF-8" standalone="no"?>
<svg
   version="1.1"
   id="svg1"
   width="254.74026"
   height="269.85822"
   viewBox="0 0 254.74026 269.85822"
   xmlns="http://www.w3.org/2000/svg"
   xmlns:svg="http://www.w3.org/2000/svg">
  <defs
     id="defs1" />
  <g
     id="layer-MC0"
     transform="translate(11.338587,-799.74848)">
    <g
       id="ornament_bl">
      <path
         id="path1"
         d="m 0,0 2.268,2.268 h 13.039 l 1.352,-1.701 h 9.637 l 1.518,1.675 10.737,0.026 V -1.134 H 11.339 l -5.67,-5.669 v -4.536 H 3.402 l -2.268,2.268 v 5.669 H 0 Z"
         style="fill:#ffffff;fill-opacity:1;fill-rule:nonzero;stroke:none"
         transform="matrix(1.3333333,0,0,-1.3333333,7.5590133,1003.843)" />
      <path
         id="path2"
         d="M 0,0 H 4.535 V -2.268 L 3.402,-3.402 H 0 Z"
         style="fill:#ffffff;fill-opacity:1;fill-rule:nonzero;stroke:none"
         transform="matrix(1.3333333,0,0,-1.3333333,60.47248,1000.8194)" />
      <path
         id="path12"
         d="m 0,0 -2.268,-2.268 v -11.338 l 1.134,-1.134 v -3.402 l -1.134,-1.134 v -7.937 l -2.267,-2.267 v -4.536 H 0 Z"
         style="fill:#ffffff;fill-opacity:1;fill-rule:nonzero;stroke:none"
         transform="matrix(1.3333333,0,0,-1.3333333,99.779547,799.74848)" />
      <path
         id="path13"
         d="m 78.803,166.11 h 4.535 v -3.402 h -4.535 z"
         style="fill:#ffffff;fill-opacity:1;fill-rule:nonzero;stroke:none"
         transform="matrix(1.3333333,0,0,-1.3333333,-11.338587,1069.6067)" />
      <path
         id="path14"
         d="m 78.803,160.441 h 4.535 v -4.535 h -4.535 z"
         style="fill:#ffffff;fill-opacity:1;fill-rule:nonzero;stroke:none"
         transform="matrix(1.3333333,0,0,-1.3333333,-11.338587,1069.6067)" />
      <path
         id="path15"
         d="M 0,0 H 4.535 V -13.606 L 0,-9.071 Z"
         style="fill:#ffffff;fill-opacity:1;fill-rule:nonzero;stroke:none"
         transform="matrix(1.3333333,0,0,-1.3333333,93.732213,866.26821)" />
      <path
         id="path16"
         d="M 0,0 4.535,-4.535 V -7.937 L 0,-3.402 Z"
         style="fill:#ffffff;fill-opacity:1;fill-rule:nonzero;stroke:none"
         transform="matrix(1.3333333,0,0,-1.3333333,93.732213,882.89808)" />
      <path
         id="path17"
         d="M 0,0 4.535,-3.402 H 0 Z"
         style="fill:#ffffff;fill-opacity:1;fill-rule:nonzero;stroke:none"
         transform="matrix(1.3333333,0,0,-1.3333333,93.732213,893.48075)" />
      <path
         id="path18"
         d="m 78.803,125.291 h 3.402 v -6.803 h -3.402 z"
         style="fill:#ffffff;fill-opacity:1;fill-rule:nonzero;stroke:none"
         transform="matrix(1.3333333,0,0,-1.3333333,-11.338587,1069.6067)" />
      <path
         id="path19"
         d="m 78.803,115.087 h 3.402 V 99.213 h -3.402 z"
         style="fill:#ffffff;fill-opacity:1;fill-rule:nonzero;stroke:none"
         transform="matrix(1.3333333,0,0,-1.3333333,-11.338587,1069.6067)" />
      <path
         id="path20"
         d="m 78.803,95.811 h 3.402 v -6.803 h -3.402 z"
         style="fill:#ffffff;fill-opacity:1;fill-rule:nonzero;stroke:none"
         transform="matrix(1.3333333,0,0,-1.3333333,-11.338587,1069.6067)" />
      <path
         id="path21"
         d="m 78.803,85.606 h 4.535 v -7.937 h -4.535 z"
         style="fill:#ffffff;fill-opacity:1;fill-rule:nonzero;stroke:none"
         transform="matrix(1.3333333,0,0,-1.3333333,-11.338587,1069.6067)" />
      <path
         id="path22"
         d="m 78.803,74.268 h 4.535 V 58.394 h -4.535 z"
         style="fill:#ffffff;fill-opacity:1;fill-rule:nonzero;stroke:none"
         transform="matrix(1.3333333,0,0,-1.3333333,-11.338587,1069.6067)" />
      <path
         id="path23"
         d="m 0,0 h 3.402 l 2.267,-2.268 v -114.519 l -1.134,1.133 V -6.803 l -2.267,2.268 v 2.267 z"
         style="fill:#ffffff;fill-opacity:1;fill-rule:nonzero;stroke:none"
         transform="matrix(1.3333333,0,0,-1.3333333,83.149547,836.03195)" />
      <path
         id="path29"
         d="m 0,0 v -4.535 h 45.354 l 1.134,1.133 v 2.268 L 45.354,0 Z"
         style="fill:#ffffff;fill-opacity:1;fill-rule:nonzero;stroke:none"
         transform="matrix(1.3333333,0,0,-1.3333333,126.99208,1023.4965)" />
      <path
         id="path30"
         d="M 0,0 1.134,-1.134 H 20.409 L 21.543,0 V 3.402 H 0 Z"
         style="fill:#ffffff;fill-opacity:1;fill-rule:nonzero;stroke:none"
         transform="matrix(1.3333333,0,0,-1.3333333,190.48821,1028.0319)" />
      <path
         id="path31"
         d="M 0,0 H 15.874 V -1.134 L 13.606,-3.402 H 10.205 L 9.071,-2.268 H 6.803 L 5.669,-3.402 H 0 Z"
         style="fill:#ffffff;fill-opacity:1;fill-rule:nonzero;stroke:none"
         transform="matrix(1.3333333,0,0,-1.3333333,220.72435,1023.4965)" />
      <path
         id="path32"
         d="m 0,0 h -2.268 l 1.134,1.134 H 0 Z"
         style="fill:#ffffff;fill-opacity:1;fill-rule:nonzero;stroke:none"
         transform="matrix(1.3333333,0,0,-1.3333333,120.94488,1028.0319)" />
      <path
         id="path33"
         d="m 0,0 -4.535,-4.535 h -37.418 l -1.134,1.133 v 1.134 L -45.354,0 v 1.134 h 1.134 l 2.267,-2.268 1.134,-1.134 H -4.535 L -2.268,0 Z"
         style="fill:#ffffff;fill-opacity:1;fill-rule:nonzero;stroke:none"
         transform="matrix(1.3333333,0,0,-1.3333333,181.41728,1028.0319)" />
      <path
         id="path34"
         d="m 0,0 h -10.205 l -2.267,-2.268 h 14.74 z"
         style="fill:#ffffff;fill-opacity:1;fill-rule:nonzero;stroke:none"
         transform="matrix(1.3333333,0,0,-1.3333333,195.02368,1031.0555)" />
      <path
         id="path35"
         d="M 0,0 H 24.945 L 23.811,-1.134 H 14.74 l -1.134,-1.134 h -2.267 l -1.134,1.134 H -2.268 -6.803 V 0 h 5.669 z"
         style="fill:#ffffff;fill-opacity:1;fill-rule:nonzero;stroke:none"
         transform="matrix(1.3333333,0,0,-1.3333333,210.14168,1032.5674)" />
      <path
         id="path47"
         d="M 0,0 H 0.567 V 0.555 H 0 Z"
         style="fill:#6a40a3;fill-opacity:1;fill-rule:nonzero;stroke:none"
         transform="matrix(1.3333333,0,0,-1.3333333,-11.338587,1069.6067)" />
      <path
         id="path49"
         d="m 0,0 -3.969,-3.968 h 1.134 L 1.134,0 Z"
         style="fill:#ffffff;fill-opacity:1;fill-rule:nonzero;stroke:none"
         transform="matrix(1.3333333,0,0,-1.3333333,71.055147,1040.1269)" />
      <path
         id="path50"
         d="M 0,0 H 5.102 L 4.535,-1.701 h -6.236 z"
         style="fill:#ffffff;fill-opacity:1;fill-rule:nonzero;stroke:none"
         transform="matrix(1.3333333,0,0,-1.3333333,61.228347,1043.1501)" />
      <path
         id="path51"
         d="m 0,0 h -12.472 l 0.566,-0.567 h 4.536 l 0.567,-0.567 h 1.134 l 0.567,0.567 H 1.134 3.402 V 0 H 0.567 Z"
         style="fill:#ffffff;fill-opacity:1;fill-rule:nonzero;stroke:none"
         transform="matrix(1.3333333,0,0,-1.3333333,49.889813,1044.6618)" />
    </g>
  </g>
</svg>
