<?xml version='1.0' encoding='utf-8'?>
<svg xmlns="http://www.w3.org/2000/svg" version="1.1" id="svg1" width="816.37738" height="1058.2681" viewBox="0 0 816.37738 1058.2681">
  <defs id="defs1" />
  <g id="layer-MC0">
    <g id="ornament_tl"><path id="path45" d="m 0,810.141 h 0.567 v 0.567 H 0 Z" style="fill:#6a40a3;fill-opacity:1;fill-rule:nonzero;stroke:none" transform="matrix(1.3333333,0,0,-1.3333333,-11.338587,1069.6067)" />
    </g><g id="ornament_lt"><path id="path9" d="m 0,0 v -3.402 l 2.268,-2.267 h 54.425 l -1.134,1.134 H 6.803 L 4.535,-2.268 H 2.268 Z" style="fill:#ffffff;fill-opacity:1;fill-rule:nonzero;stroke:none" transform="matrix(1.3333333,0,0,-1.3333333,83.149547,18.142213)" />
    </g><g id="ornament_lb"><path id="path5" d="m 0,0 -5.705,-5.669 h -14.803 v 2.268 h -33.388 v -4.535 h 49.325 l 2.268,2.267 -10e-4,1.198 2.268,2.204 1.143,0.009 L 3.364,0 Z" style="fill:#ffffff;fill-opacity:1;fill-rule:nonzero;stroke:none" transform="matrix(1.3333333,0,0,-1.3333333,60.522213,74.079547)" />
    <path id="path6" d="m 0,0 v -4.536 h 39.118 v 2.268 h 14.804 l 5.705,-5.669 h 2.168 l -2.204,2.268 -2.268,2.203 10e-4,1.198 L 55.056,0 Z m 59.589,-7.937 h 0.038 z" style="fill:#ffffff;fill-opacity:1;fill-rule:nonzero;stroke:none" transform="matrix(1.3333333,0,0,-1.3333333,-11.338587,12.094747)" />
    <path id="path52" d="m 0,0 v -39.685 h 26.645 v 5.669 h -1.134 l -2.267,2.268 v 6.803 h 3.401 v 1.134 h -3.401 v 4.536 h 3.401 v 1.133 h -3.401 v 4.536 h 3.401 v 1.134 h -3.401 v 5.669 l 1.134,1.134 2.267,2.267 V 0 Z" style="fill:#ffffff;fill-opacity:1;fill-rule:nonzero;stroke:none" transform="matrix(1.3333333,0,0,-1.3333333,-11.338587,22.677547)" />
  </g><g id="ornament_bl"><path id="path8" d="M 0,0 V 3.402 L 2.268,5.669 H 56.693 L 55.559,4.535 H 6.803 L 4.535,2.268 H 2.268 Z" style="fill:#ffffff;fill-opacity:1;fill-rule:nonzero;stroke:none" transform="matrix(1.3333333,0,0,-1.3333333,75.590613,78.614613)" />
    </g><g id="ornament_left_extra_1"><path id="path36" d="m 0,0 v -26.079 l 1.134,-1.134 v -10.204 l -9.071,-6.803 h -2.268 -3.401 v 5.669 l 5.669,5.669 v 20.41 l 3.402,3.401 v 4.536 z" style="fill:#ffffff;fill-opacity:1;fill-rule:nonzero;stroke:none" transform="matrix(1.3333333,0,0,-1.3333333,93.732213,155.71701)" />
    <path id="path37" d="m 75.402,701.291 h -2.268 v -3.402 h 2.268 z" style="fill:#ffffff;fill-opacity:1;fill-rule:nonzero;stroke:none" transform="matrix(1.3333333,0,0,-1.3333333,-11.338587,1069.6067)" />
    <path id="path38" d="m 75.402,695.622 h -2.268 v -3.402 h 2.268 z" style="fill:#ffffff;fill-opacity:1;fill-rule:nonzero;stroke:none" transform="matrix(1.3333333,0,0,-1.3333333,-11.338587,1069.6067)" />
    <path id="path39" d="M 0,0 H 2.268 L 4.535,-2.268 V -9.071 H 0 Z" style="fill:#ffffff;fill-opacity:1;fill-rule:nonzero;stroke:none" transform="matrix(1.3333333,0,0,-1.3333333,86.17328,105.82715)" />
    <path id="path40" d="M 0,0 H 4.535 V -5.669 L 3.402,-6.803 0,-10.205 Z" style="fill:#ffffff;fill-opacity:1;fill-rule:nonzero;stroke:none" transform="matrix(1.3333333,0,0,-1.3333333,86.17328,119.43355)" />
    <path id="path41" d="m 0,0 0.01,11.747 -1.114,1.282 v 21.543 l -2.287,2.12 v 3.401 l 2.37,2.187 v 3.402 L 1.144,48.03 V 42.361 L -1.124,40.093 V 36.692 L 1.144,34.424 V 12.881 L 2.278,11.747 V -1.859" style="fill:#ffffff;fill-opacity:1;fill-rule:nonzero;stroke:none" transform="matrix(1.3333333,0,0,-1.3333333,98.253947,191.03315)" />
    <path id="path42" d="M 0,0 H 1.701 L 2.835,-1.134 V 0 L 0,2.835 H 1.701 L 2.835,1.701 V 2.835 L 0,5.669 H 1.701 L 2.835,4.535 V 8.504 H 1.701 l -7.937,-7.937 3.401,-3.969 h 5.67 v 0.567 z" style="fill:#ffffff;fill-opacity:1;fill-rule:nonzero;stroke:none" transform="matrix(1.3333333,0,0,-1.3333333,91.464613,215.43355)" />
    </g><g id="ornament_left_extra_2"><path id="path1" d="m 0,0 2.268,2.268 h 13.039 l 1.352,-1.701 h 9.637 l 1.518,1.675 10.737,0.026 V -1.134 H 11.339 l -5.67,-5.669 v -4.536 H 3.402 l -2.268,2.268 v 5.669 l -1.134,0 z" style="fill:#ffffff;fill-opacity:1;fill-rule:nonzero;stroke:none" transform="matrix(1.3333333,0,0,-1.3333333,7.5590133,1003.843)" />
    <path id="path2" d="M 0,0 H 4.535 V -2.268 L 3.402,-3.402 H 0 Z" style="fill:#ffffff;fill-opacity:1;fill-rule:nonzero;stroke:none" transform="matrix(1.3333333,0,0,-1.3333333,60.47248,1000.8194)" />
    <path id="path12" d="m 0,0 -2.268,-2.268 v -11.338 l 1.134,-1.134 v -3.402 l -1.134,-1.134 v -7.937 l -2.267,-2.267 v -4.536 H 0 Z" style="fill:#ffffff;fill-opacity:1;fill-rule:nonzero;stroke:none" transform="matrix(1.3333333,0,0,-1.3333333,99.779547,799.74848)" />
    <path id="path13" d="m 78.803,166.11 h 4.535 v -3.402 h -4.535 z" style="fill:#ffffff;fill-opacity:1;fill-rule:nonzero;stroke:none" transform="matrix(1.3333333,0,0,-1.3333333,-11.338587,1069.6067)" />
    <path id="path14" d="m 78.803,160.441 h 4.535 v -4.535 h -4.535 z" style="fill:#ffffff;fill-opacity:1;fill-rule:nonzero;stroke:none" transform="matrix(1.3333333,0,0,-1.3333333,-11.338587,1069.6067)" />
    <path id="path15" d="M 0,0 H 4.535 V -13.606 L 0,-9.071 Z" style="fill:#ffffff;fill-opacity:1;fill-rule:nonzero;stroke:none" transform="matrix(1.3333333,0,0,-1.3333333,93.732213,866.26821)" />
    <path id="path16" d="M 0,0 4.535,-4.535 V -7.937 L 0,-3.402 Z" style="fill:#ffffff;fill-opacity:1;fill-rule:nonzero;stroke:none" transform="matrix(1.3333333,0,0,-1.3333333,93.732213,882.89808)" />
    <path id="path17" d="M 0,0 4.535,-3.402 H 0 Z" style="fill:#ffffff;fill-opacity:1;fill-rule:nonzero;stroke:none" transform="matrix(1.3333333,0,0,-1.3333333,93.732213,893.48075)" />
    <path id="path18" d="m 78.803,125.291 h 3.402 v -6.803 h -3.402 z" style="fill:#ffffff;fill-opacity:1;fill-rule:nonzero;stroke:none" transform="matrix(1.3333333,0,0,-1.3333333,-11.338587,1069.6067)" />
    <path id="path19" d="m 78.803,115.087 h 3.402 V 99.213 h -3.402 z" style="fill:#ffffff;fill-opacity:1;fill-rule:nonzero;stroke:none" transform="matrix(1.3333333,0,0,-1.3333333,-11.338587,1069.6067)" />
    <path id="path20" d="m 78.803,95.811 h 3.402 v -6.803 h -3.402 z" style="fill:#ffffff;fill-opacity:1;fill-rule:nonzero;stroke:none" transform="matrix(1.3333333,0,0,-1.3333333,-11.338587,1069.6067)" />
    <path id="path21" d="m 78.803,85.606 h 4.535 v -7.937 h -4.535 z" style="fill:#ffffff;fill-opacity:1;fill-rule:nonzero;stroke:none" transform="matrix(1.3333333,0,0,-1.3333333,-11.338587,1069.6067)" />
    <path id="path22" d="m 78.803,74.268 h 4.535 V 58.394 h -4.535 z" style="fill:#ffffff;fill-opacity:1;fill-rule:nonzero;stroke:none" transform="matrix(1.3333333,0,0,-1.3333333,-11.338587,1069.6067)" />
    <path id="path23" d="m 0,0 h 3.402 l 2.267,-2.268 v -114.519 l -1.134,1.133 V -6.803 l -2.267,2.268 v 2.267 z" style="fill:#ffffff;fill-opacity:1;fill-rule:nonzero;stroke:none" transform="matrix(1.3333333,0,0,-1.3333333,83.149547,836.03195)" />
    <path id="path49" d="m 0,0 -3.969,-3.968 h 1.134 L 1.134,0 Z" style="fill:#ffffff;fill-opacity:1;fill-rule:nonzero;stroke:none" transform="matrix(1.3333333,0,0,-1.3333333,71.055147,1040.1269)" />
    <path id="path50" d="M 0,0 H 5.102 L 4.535,-1.701 h -6.236 z" style="fill:#ffffff;fill-opacity:1;fill-rule:nonzero;stroke:none" transform="matrix(1.3333333,0,0,-1.3333333,61.228347,1043.1501)" />
    <path id="path51" d="m 0,0 h -12.472 l 0.566,-0.567 h 4.536 l 0.567,-0.567 h 1.134 l 0.567,0.567 H 1.134 3.402 L 3.402,0 H 0.567 Z" style="fill:#ffffff;fill-opacity:1;fill-rule:nonzero;stroke:none" transform="matrix(1.3333333,0,0,-1.3333333,49.889813,1044.6618)" />
    </g><g id="ornament_left_extra_3"><path id="path29" d="m 0,0 v -4.535 h 45.354 l 1.134,1.133 v 2.268 L 45.354,0 Z" style="fill:#ffffff;fill-opacity:1;fill-rule:nonzero;stroke:none" transform="matrix(1.3333333,0,0,-1.3333333,126.99208,1023.4965)" />
    <path id="path30" d="M 0,0 1.134,-1.134 H 20.409 L 21.543,0 V 3.402 H 0 Z" style="fill:#ffffff;fill-opacity:1;fill-rule:nonzero;stroke:none" transform="matrix(1.3333333,0,0,-1.3333333,190.48821,1028.0319)" />
    <path id="path31" d="M 0,0 H 15.874 V -1.134 L 13.606,-3.402 H 10.205 L 9.071,-2.268 H 6.803 L 5.669,-3.402 H 0 Z" style="fill:#ffffff;fill-opacity:1;fill-rule:nonzero;stroke:none" transform="matrix(1.3333333,0,0,-1.3333333,220.72435,1023.4965)" />
    <path id="path32" d="m 0,0 h -2.268 l 1.134,1.134 H 0 Z" style="fill:#ffffff;fill-opacity:1;fill-rule:nonzero;stroke:none" transform="matrix(1.3333333,0,0,-1.3333333,120.94488,1028.0319)" />
    <path id="path33" d="m 0,0 -4.535,-4.535 h -37.418 l -1.134,1.133 v 1.134 L -45.354,0 v 1.134 h 1.134 l 2.267,-2.268 1.134,-1.134 H -4.535 L -2.268,0 Z" style="fill:#ffffff;fill-opacity:1;fill-rule:nonzero;stroke:none" transform="matrix(1.3333333,0,0,-1.3333333,181.41728,1028.0319)" />
    <path id="path34" d="m 0,0 h -10.205 l -2.267,-2.268 h 14.74 z" style="fill:#ffffff;fill-opacity:1;fill-rule:nonzero;stroke:none" transform="matrix(1.3333333,0,0,-1.3333333,195.02368,1031.0555)" />
    <path id="path35" d="M 0,0 H 24.945 L 23.811,-1.134 H 14.74 l -1.134,-1.134 h -2.267 l -1.134,1.134 H -2.268 -6.803 V 0 h 5.669 z" style="fill:#ffffff;fill-opacity:1;fill-rule:nonzero;stroke:none" transform="matrix(1.3333333,0,0,-1.3333333,210.14168,1032.5674)" />
    </g><g id="ornament_left_extra_4"><path id="path47" d="M 0,0 H 0.567 V 0.555 H 0 Z" style="fill:#6a40a3;fill-opacity:1;fill-rule:nonzero;stroke:none" transform="matrix(1.3333333,0,0,-1.3333333,-11.338587,1069.6067)" />
    </g><g id="ornament_tm"><path id="path7" d="m 0,0 -6.804,6.803 h 2.267 L 2.266,0 Z" style="fill:#ffffff;fill-opacity:1;fill-rule:nonzero;stroke:none" transform="matrix(1.3333333,0,0,-1.3333333,506.45835,33.260347)" />
    <path id="path10" d="M 0,0 H 10.205 L 9.071,3.402 H -3.402 Z" style="fill:#ffffff;fill-opacity:1;fill-rule:nonzero;stroke:none" transform="matrix(1.3333333,0,0,-1.3333333,488.31488,28.72488)" />
    <path id="path11" d="m 0,0 h -24.945 l 1.134,1.134 h 9.071 l 1.134,1.134 h 2.267 l 1.134,-1.134 H 2.268 6.803 L 6.803,0 H 1.134 Z" style="fill:#ffffff;fill-opacity:1;fill-rule:nonzero;stroke:none" transform="matrix(1.3333333,0,0,-1.3333333,465.63781,25.70128)" />
    </g><g id="ornament_bm"><path id="path3" d="m 0,0 -3.402,-4.535 h -15.874 l -2.703,3.401 h -19.275 l -3.036,-3.35 -35.08,-0.051 v 6.803 h 68.031 l 3.403,3.401 -0.001,6.803 h 2.268 L -2.268,9.071 V 6.803 H 0 Z" style="fill:#ffffff;fill-opacity:1;fill-rule:nonzero;stroke:none" transform="matrix(1.3333333,0,0,-1.3333333,517.03941,71.055547)" />
    </g><g id="ornament_mid_extra_1"><path id="path4" d="m 0,0 h -9.071 v -4.535 l 2.268,-2.268 H 0 Z" style="fill:#ffffff;fill-opacity:1;fill-rule:nonzero;stroke:none" transform="matrix(1.3333333,0,0,-1.3333333,409.70075,68.031947)" />
    </g><g id="ornament_tr"><path id="path46" d="m 628.725,810.141 h 0.567 v 0.567 h -0.567 z" style="fill:#6a40a3;fill-opacity:1;fill-rule:nonzero;stroke:none" transform="matrix(1.3333333,0,0,-1.3333333,-11.338587,1069.6067)" />
    </g><g id="ornament_rt"><path id="path24" d="m 0,0 2.835,-2.835 v -11.338 l -2.126,-1.69 V -27.91 l 2.093,-1.897 0.033,-39.642 h -4.252 v 60.236 l -3.544,3.544 h -2.126 v 3.543 h 2.835 V 0 Z" style="fill:#ffffff;fill-opacity:1;fill-rule:nonzero;stroke:none" transform="matrix(1.3333333,0,0,-1.3333333,769.88981,101.29181)" />
    <path id="path26" d="m 582.378,714.189 h -3.543 v 3.543 h 3.543 z" style="fill:#ffffff;fill-opacity:1;fill-rule:nonzero;stroke:none" transform="matrix(1.3333333,0,0,-1.3333333,-11.338587,1069.6067)" />
    <path id="path27" d="m 582.378,709.228 h -3.543 v 3.543 h 3.543 z" style="fill:#ffffff;fill-opacity:1;fill-rule:nonzero;stroke:none" transform="matrix(1.3333333,0,0,-1.3333333,-11.338587,1069.6067)" />
    <path id="path28" d="m 580.961,697.89 h -0.709 v 8.504 h 0.709 z m 0,-9.921 h -0.709 v 8.504 h 0.709 z m 0,-9.922 h -0.709 v 8.504 h 0.709 z m -2.126,29.764 V 655.37 l 3.543,3.543 v 48.898 z" style="fill:#ffffff;fill-opacity:1;fill-rule:nonzero;stroke:none" transform="matrix(1.3333333,0,0,-1.3333333,-11.338587,1069.6067)" />
    </g><g id="ornament_rb"><path id="path25" d="m 0,0 v -8.504 l -2.835,2.835 -1.417,1.417 V 0 Z" style="fill:#ffffff;fill-opacity:1;fill-rule:nonzero;stroke:none" transform="matrix(1.3333333,0,0,-1.3333333,773.66928,194.83515)" />
    </g><g id="ornament_br"><path id="path44" d="m 0,0 -2.268,2.268 v 78.236 l -2.267,2.268 v 12.472 l 2.267,2.268 v 96.378 l -2.267,2.267 -0.006,12.32 2.273,2.421 v 30.614 H -6.803 L -6.803,0 0,-6.803 Z" style="fill:#ffffff;fill-opacity:1;fill-rule:nonzero;stroke:none" transform="matrix(1.3333333,0,0,-1.3333333,769.51181,976.63035)" />
    </g><g id="ornament_right_extra_1"><path id="path43" d="m 0,0 v 11.339 l 5.669,4.535 v 9.071 l 2.268,2.268 V 13.606 L 2.268,9.071 V 2.268 Z" style="fill:#ffffff;fill-opacity:1;fill-rule:nonzero;stroke:none" transform="matrix(1.3333333,0,0,-1.3333333,764.97635,1006.8666)" />
    </g><g id="ornament_right_extra_2"><path id="path48" d="m 628.725,0 h 0.567 v 0.555 h -0.567 z" style="fill:#6a40a3;fill-opacity:1;fill-rule:nonzero;stroke:none" transform="matrix(1.3333333,0,0,-1.3333333,-11.338587,1069.6067)" />
    </g></g>
</svg>